<svg xmlns="http://www.w3.org/2000/svg" width="512" height="450">
  <circle cx="256" cy="170" r="170" fill="#fdc013"/>
  <path d="M102 276.9l-22 36h74.7v-36zm63.3 0v36h85.4v-36zm96 0v36h85.4v-36zm96 0v36H432l-22-36zm-282.6 46l-21.4 36h53.4v-36zm42.6 0v36h85.4v-36zm96 0v36h85.4v-36zm96 0v36h85.4v-36zm96 0v36h53.4l-21.4-36zM48 368.9l-21.3 36h32v-36zm21.3 0v36h85.4v-36zm96 0v36h85.4v-36zm96 0v36h85.4v-36zm96 0v36h85.4v-36zm96 0v36h32l-21.3-36zm-432 46L0 450h96v-36zm85.4 0v36H192v-36zm213.3 0v36h85.3v-36zm96 0v36h96l-21.3-36z" fill="#663695"/>
  <path d="M204 414.9v36h105v-36z" fill="#fdc013"/>
  <g transform="matrix(1.0177 0 0 1.0124 -8.1 -40.1)">
    <path d="M399 293.4l-139.5-243-139.5 243z" fill="#663695"/>
    <circle r="70.9" cy="210" cx="259.5" fill="#fff"/>
    <circle r="21.8" cy="204.5" cx="259.5" fill="#663695"/>
    <path d="M259.5 242.1v24m13.1-24l.3 6.9c.8 15 16 15.2 16-3.6M201.9 206s25.2-25.6 57.7-25.6c32 0 57.8 25.6 57.8 25.6s-25.8 23.5-57.8 23.5c-32.5 0-57.7-23.5-57.7-23.5zm35.2-40.8a73 73 0 0123.3-3.9c9.3 0 18 1.7 25.5 5" fill="none" stroke="#663695" stroke-width="8.5" stroke-linecap="round" stroke-linejoin="round"/>
    <path d="M259.5 95.5v28.9m100.3 147.2l-23.4-15.9m-177.2 15.9l23.5-15.9" fill="none" stroke="#fff" stroke-width="8.2" stroke-linecap="round" stroke-linejoin="round"/>
  </g>
</svg>
