<?xml version="1.0" encoding="UTF-8" standalone="no"?>
<svg
   xmlns:dc="http://purl.org/dc/elements/1.1/"
   xmlns:cc="http://creativecommons.org/ns#"
   xmlns:rdf="http://www.w3.org/1999/02/22-rdf-syntax-ns#"
   xmlns:svg="http://www.w3.org/2000/svg"
   xmlns="http://www.w3.org/2000/svg"
   xmlns:sodipodi="http://sodipodi.sourceforge.net/DTD/sodipodi-0.dtd"
   xmlns:inkscape="http://www.inkscape.org/namespaces/inkscape"
   height="500"
   width="500"
   version="1.1"
   id="svg12238"
   sodipodi:docname="grundstein.svg"
   inkscape:version="0.92.4 (5da689c313, 2019-01-14)">
  <metadata
     id="metadata12244">
    <rdf:RDF>
      <cc:Work
         rdf:about="">
        <dc:format>image/svg+xml</dc:format>
        <dc:type
           rdf:resource="http://purl.org/dc/dcmitype/StillImage" />
        <dc:title></dc:title>
      </cc:Work>
    </rdf:RDF>
  </metadata>
  <defs
     id="defs12242" />
  <sodipodi:namedview
     pagecolor="#ffffff"
     bordercolor="#666666"
     borderopacity="1"
     objecttolerance="10"
     gridtolerance="10"
     guidetolerance="10"
     inkscape:pageopacity="0"
     inkscape:pageshadow="2"
     inkscape:window-width="1918"
     inkscape:window-height="1038"
     id="namedview12240"
     showgrid="false"
     showguides="false"
     inkscape:zoom="2.06"
     inkscape:cx="183.02573"
     inkscape:cy="163.22203"
     inkscape:window-x="0"
     inkscape:window-y="20"
     inkscape:window-maximized="1"
     inkscape:current-layer="svg12238" />
  <ellipse
     cy="153.06088"
     cx="249.9565"
     id="circle12220"
     style="fill:#f09d09;stroke-width:1.01017988"
     rx="150.00844"
     ry="153.06088" />
  <path
     style="fill:#212121;stroke-width:1.01129198"
     d="m 133.91406,240.125 c -9.6462,-0.17188 -9.83681,1.91421 -14.01172,9.5 L 2.3144531,485.97852 c 0,0 -7.9070057,13.97728 5.5039063,14.02148 161.4544306,0 322.9088506,0 484.3632806,0 13.41091,-0.0442 5.50391,-14.02148 5.50391,-14.02148 L 380.09766,249.625 c -4.17491,-7.58579 -4.36552,-9.67188 -14.01172,-9.5 -77.39067,-0.18311 -154.78119,-0.0833 -232.17188,0 z"
     id="path13052"
     inkscape:connector-curvature="0"
     sodipodi:nodetypes="ccccccccc" />
  <path
     d="M 335,200 250,20 165,200 Z"
     id="path12222"
     inkscape:connector-curvature="0"
     style="fill:#d8d8d8;stroke-width:0.98582524"
     sodipodi:nodetypes="cccc" />
  <path
     style="fill:#212121;fill-opacity:1;stroke-width:0.39478424"
     d="m 231.20703,25.398438 c -19.71099,41.13621 -39.73382,81.557512 -62.5918,130.003902 1.29792,1.52782 3.49828,2.70186 5.33008,3.32227 24.2474,-50.14808 37.11196,-77.900755 61.35938,-128.048829 10.61825,-25.6971948 25.72189,-13.16258 29.01367,-0.173828 0.86487,0 5.07812,-2.425686 5.07812,-2.923828 -4.37193,-12.34587 -8.63712,-14.372736 -15.04101,-16.796875 -11.16049,-2.383389 -20.27126,6.914551 -23.14844,14.617188 z M 248,21 c -30.24784,62.884447 -58.49822,121.62708 -85.13672,175.89258 -0.68187,1.82402 0.0318,3.4912 1.5,4.63476 h 85.51758 85.51562 c 1.97983,-1.27203 2.01614,-2.04431 1.90235,-3.96679 L 252,21 c -1.51529,-1.213041 -2.74777,-1.072162 -4,0 z m 24.45898,13.158203 c -0.445,0 -4.82783,2.40277 -5.04882,2.767578 -0.15028,2.169556 1.83193,4.347073 2.93164,6.00586 0.73464,0 5.06445,-2.399458 5.06445,-2.806641 0,-0.529033 -2.68593,-5.966797 -2.94727,-5.966797 z m -26.02929,3.917969 0.32812,51.447266 c -1.75502,0.681514 -3.19538,0.713866 -5.19531,0.478515 -3.19626,-8.486954 -4.08801,-19.114765 -6.98633,-27.826172 4.38978,-9.179371 7.3693,-15.767527 11.85352,-24.099609 z m 6.98633,0.398437 11.74218,23.478516 c -2.29546,9.382968 -4.59125,18.76547 -6.88672,28.148437 -1.83355,0.08745 -3.54126,0.269743 -5.26953,-0.572265 0,-21.018867 -0.28202,-32.796321 0.41407,-51.054688 z m 24.76562,8.015625 c -0.4444,0 -4.82226,2.400923 -5.04297,2.765625 -0.15008,2.168898 1.82945,4.34561 2.92774,6.003907 0.73369,0 5.05859,-2.399582 5.05859,-2.806641 0,-0.528877 -2.68233,-5.962891 -2.94336,-5.962891 z m 6.09961,12.833985 -5.10742,2.830078 63.98242,133.746093 c 1.57608,4.61165 -0.71418,10.81256 -7.54297,12.33789 -69.50443,-0.34483 -109.87516,0.25155 -172.08984,0 -6.47237,-1.80125 -9.01337,-9.20432 -7.02735,-13.10351 8.29321,-17.53375 6.10237,-11.03706 8.29297,-17.53516 0,-0.39372 -4.35101,-2.78125 -5.06836,-2.78125 -0.50616,0 -8.39022,16.55458 -9.18359,19.2832 -2.38341,8.19733 2.74261,17.79968 11.13086,20.1836 h 176.23047 c 11.74528,-0.19443 13.1299,-13.48559 11.50781,-20.70899 z m -54.13867,12.638672 c 0.47957,0 5.0568,18.266442 4.84375,19.330078 -0.42207,1.394738 -5.88309,2.698609 -7.43945,3.384765 -1.91964,-1.366979 -3.60851,-5.364015 -4.60938,-7.613281 -0.0161,-0.933391 6.74378,-15.101562 7.20508,-15.101562 z m 39.47851,0 c 0.49956,0 7.19854,14.072479 7.17774,15.078125 -0.69758,2.614475 -3.19972,5.584308 -4.71094,7.503906 -0.5229,0.05435 -6.32371,-2.148033 -7.22851,-2.744141 -0.55496,-0.365592 4.119,-19.83789 4.76171,-19.83789 z m 10.9961,22.142578 c 0.95765,1.95119 4.04605,6.937491 3.3457,8.142581 -0.80156,-0.0348 -5.58984,-4.055012 -5.58984,-4.693362 0.059,-1.2819 1.57534,-2.426139 2.24414,-3.449219 z M 219.31055,94.6875 c 0.55726,0 2.07222,2.250461 2.07422,3.082031 -1.62916,2.04513 -4.33468,4.045029 -5.85352,4.199219 0,-0.86084 3.33261,-7.28125 3.7793,-7.28125 z m 30.01953,1.111328 c 4.67716,0.06752 9.67829,0.740964 14.99219,2.115234 31.55764,11.185118 45.02648,51.649158 19.26757,80.494138 v 0.002 c -23.00126,19.8646 -47.61697,17.80995 -67.5625,-0.0137 -26.78849,-27.26322 -11.90982,-83.250296 33.30274,-82.597652 z m -0.2207,22.955082 c -5.02501,0.0963 -9.57746,1.09324 -12.06836,1.57812 -7.9464,2.65833 -17.49267,7.67725 -21.35938,20.40039 -2.06688,0.13288 -4.13237,0.26549 -6.19922,0.39844 v 5.98047 c 2.06175,0.13289 4.12186,0.26551 6.1836,0.39844 5.70253,11.2917 15.77137,13.57819 27.77343,15.58007 0.078,5.87681 -0.066,10.34836 0.27149,15.87696 0.22955,0.55523 6.4e-4,-9e-5 5.97461,0.0371 l 0.39062,-15.54883 c 2.04838,-0.23739 3.5747,-0.50425 5.56055,-0.40625 -2.32731,19.47757 22.40335,21.48359 22.15234,3.5957 h -5.83398 c -1.94331,11.62666 -12.6139,5.92926 -9.38867,-5.11328 5.07971,-2.61023 11.37209,-4.85266 15.27539,-14.02148 2.06358,-0.13288 4.12784,-0.2655 6.1914,-0.39844 v -5.98047 c -2.07205,-0.13289 -4.14471,-0.26551 -6.21679,-0.39844 -0.99199,-2.87546 -1.4323,-5.01313 -3.67188,-7.375 -0.582,0 -4.74805,2.58925 -4.74805,2.95117 1.38599,3.82392 2.87662,6.07843 1.64454,10.69922 -6.61591,15.52225 -45.6555,12.22535 -49.10547,-1.54687 -0.7828,-17.65984 28.71418,-27.73397 42.05664,-15.31055 0.55802,-0.018 3.45312,-3.61862 3.45312,-4.29492 -4.63433,-5.85946 -11.87521,-7.22533 -18.33593,-7.10156 z m -2.15235,9.8164 c -6.62876,-7.2e-4 -12.00262,5.48246 -12.00195,12.2461 3.9e-4,6.76288 5.37394,12.24486 12.00195,12.24414 6.62725,-3.8e-4 11.99961,-5.48204 12,-12.24414 6.7e-4,-6.76287 -5.372,-12.24572 -12,-12.2461 z m -50.59961,13.55664 c 0.55813,0 0.8679,9.70434 0.32617,10.2168 -3.12648,1.61118 -3.849,1.88683 -6.13281,1.80273 0,-0.654 5.49072,-12.01953 5.80664,-12.01953 z m 107.02149,0.0762 21.73437,45.08008 c -27.21251,-19.44378 -25.83567,-19.98119 -27.21289,-19.44531 2.77912,-7.2563 5.76744,-14.24661 5.47852,-25.63477 z m -105.13282,16.66797 c 0.43596,0 3.28224,7.36884 3.36914,8.72266 -8.93784,8.23672 -11.61998,8.73481 -27.0664,19.68359 0,-0.46989 10.98941,-23.36956 11.4707,-23.90234 0.40225,-0.44527 11.42034,-4.50391 12.22656,-4.50391 z m -32.60937,3.23829 c -0.26136,0 -2.94727,5.43776 -2.94727,5.96679 0,0.40718 4.32982,2.80664 5.06446,2.80664 1.09973,-1.65878 3.08195,-3.83631 2.93164,-6.00586 -0.22097,-0.36483 -4.60386,-2.76758 -5.04883,-2.76757 z m 128.91797,11.91015 28.70508,20.72852 c -31.6725,0.46553 10e-4,0.002 -28.11329,0.40234 -8.80031,-14.61912 -9.15427,-8.81483 -5.72265,-14.87891 1.65383,-1.94454 3.17489,-4.48821 5.13086,-6.25195 z m -89.0918,0.2207 c 2.6504,3.98344 5.35752,7.65285 10.41797,11.95899 0.16548,0.17334 -3.99814,7.09606 -4.96289,8.25195 l -34.18164,0.36914 c -0.28834,-0.47656 28.1212,-20.8295 28.72656,-20.58008 z m 76.24609,13.80665 c 0.69633,0.15307 5.26522,6.35789 5.00196,6.79296 -0.26028,0.43015 -16.92383,0.39168 -16.92383,-0.0391 z m -60.2246,2.31835 c 0.69007,0 8.26161,3.97814 8.42382,4.42579 -5.36685,0.39351 -7.5192,0.50059 -11.2539,-0.16211 0,-0.83426 2.27645,-4.26368 2.83008,-4.26368 z"
     id="path11842-3-6"
     inkscape:connector-curvature="0"
     sodipodi:nodetypes="ccccccccccccccccsccssccccccccccsccsscccccccscccccscccsscccsccccsccscccccsccccccccccccccccccccccccccccccsccsccccscscscscccccccccccccccccscsscs" />
  <path
     style="fill:#d8d8d8;fill-opacity:1;stroke-width:1.01015604"
     d="M 130 250 L 110 290 L 200 290 L 200 250 L 130 250 z M 210 250 L 210 290 L 290 290 L 290 250 L 210 250 z M 300 250 L 300 290 L 390 290 L 370 250 L 300 250 z M 105 300 L 85 340 L 155 340 L 155 300 L 105 300 z M 165 300 L 165 340 L 245 340 L 245 300 L 165 300 z M 255 300 L 255 340 L 335 340 L 335 300 L 255 300 z M 345 300 L 345 340 L 415 340 L 395 300 L 345 300 z M 80 350 L 60 390 L 110 390 L 110 350 L 80 350 z M 120 350 L 120 390 L 200 390 L 200 350 L 120 350 z M 210 350 L 210 390 L 290 390 L 290 350 L 210 350 z M 300 350 L 300 390 L 380 390 L 380 350 L 300 350 z M 390 350 L 390 390 L 440 390 L 420 350 L 390 350 z M 55 400 L 35 440 L 65 440 L 65 400 L 55 400 z M 75 400 L 75 440 L 155 440 L 155 400 L 75 400 z M 165 400 L 165 440 L 245 440 L 245 400 L 165 400 z M 255 400 L 255 440 L 335 440 L 335 400 L 255 400 z M 345 400 L 345 440 L 425 440 L 425 400 L 345 400 z M 435 400 L 435 440 L 465 440 L 445 400 L 435 400 z M 30 450 L 10 490 L 100 490 L 100 450 L 30 450 z M 110 450 L 110 490 L 190 490 L 190 450 L 110 450 z M 310 450 L 310 490 L 390 490 L 390 450 L 310 450 z M 400 450 L 400 490 L 490 490 L 470 450 L 400 450 z "
     id="path12840-7" />
  <ellipse
     style="fill:#f09d09;stroke-width:0.09524198"
     cy="140.81599"
     cx="246.95633"
     id="circle12220-5"
     rx="8.0004501"
     ry="8.1632471" />
  <path
     style="fill:#f09d09;fill-opacity:1;stroke-width:1.01015604"
     d="m 200,450 h 100 v 40 H 200 Z"
     id="path12840-7-3-0-6" />
</svg>
